<svg xmlns="http://www.w3.org/2000/svg" width="11" height="15" viewBox="0 0 11 15">
  <path id="Forma_1" data-name="Forma 1" d="M255.74,23.733a4.512,4.512,0,0,0-.258-.6A5.4,5.4,0,0,0,250.426,20,5.269,5.269,0,0,0,245,24.653v.64c0,.027.01.266.024.387.2,1.493,1.453,3.08,2.39,4.573,1.008,1.6,2.054,3.173,3.09,4.746.639-1.027,1.275-2.067,1.9-3.066.17-.293.368-.587.538-.867.113-.186.33-.373.429-.546,1.008-1.733,2.63-3.48,2.63-5.2v-.707A5.052,5.052,0,0,0,255.74,23.733Zm-5.27,3.213a1.952,1.952,0,0,1-1.869-1.253,1.637,1.637,0,0,1-.053-.467v-.413a1.809,1.809,0,0,1,1.983-1.706,1.95,1.95,0,0,1,2.014,1.92A2,2,0,0,1,250.47,26.947Z" transform="translate(-245 -20)" fill="#f6a937"/>
</svg>
