<svg xmlns="http://www.w3.org/2000/svg" width="15" height="15" viewBox="0 0 15 15">
  <path id="Shape_1" data-name="Shape 1" d="M586.455,33.995a7.141,7.141,0,0,1-2.725-.793,14.856,14.856,0,0,1-4.919-3.848,13.541,13.541,0,0,1-2.4-4,5.172,5.172,0,0,1-.4-2.226,1.807,1.807,0,0,1,.568-1.22c.381-.362.74-.74,1.114-1.108a1.058,1.058,0,0,1,1.589,0c.3.3.6.6.9.9s.581.581.871.874a1.056,1.056,0,0,1,0,1.626c-.365.368-.727.737-1.1,1.1a.23.23,0,0,0-.056.294,6.609,6.609,0,0,0,1,1.595,11.507,11.507,0,0,0,2.778,2.528c.23.143.487.25.727.381a.22.22,0,0,0,.306-.056c.365-.374.736-.743,1.108-1.111a1.051,1.051,0,0,1,1.589,0q.9.89,1.786,1.782a1.062,1.062,0,0,1-.006,1.616c-.337.341-.7.666-1.014,1.021a1.949,1.949,0,0,1-1.541.657Q586.543,34,586.455,33.995Zm-.759-9.707a3.971,3.971,0,0,0-2.272-1.133L583.587,22a5.172,5.172,0,0,1,4.373,4.242l-1.152.2A3.971,3.971,0,0,0,585.7,24.287Zm2.088-2.032a7.363,7.363,0,0,0-4.208-2.1L583.74,19A8.586,8.586,0,0,1,591,26.038l-1.152.2A7.355,7.355,0,0,0,587.785,22.255Z" transform="translate(-576.001 -19)" fill="#f6a937"/>
</svg>
