<svg xmlns="http://www.w3.org/2000/svg" width="14.871" height="14.871" viewBox="0 0 14.871 14.871">
  <g id="Time" transform="translate(-753.569 -18.128)">
    <path id="Shape_1" data-name="Shape 1" d="M761,18.128a7.436,7.436,0,1,0,7.436,7.436A7.436,7.436,0,0,0,761,18.128Zm3.215,8.85h-3.152c-.011,0-.021,0-.031,0s-.02,0-.031,0a.514.514,0,0,1-.514-.514v-5.25a.514.514,0,0,1,1.029,0V25.95h2.7a.514.514,0,0,1,0,1.028Z" fill="#f6a937"/>
    <path id="Rectangle_1_copy" data-name="Rectangle 1 copy" d="M760.79,27a.79.79,0,0,1-.79-.79c0-.007,0-.013,0-.02s0-.013,0-.02V20.83a.83.83,0,0,1,.831-.83h.03a.83.83,0,0,1,.83.83v4.59h3.52a.79.79,0,1,1,0,1.58Z" fill="#fff"/>
  </g>
</svg>
